<svg width="724" height="272" viewBox="0 0 724 272" fill="none" xmlns="http://www.w3.org/2000/svg">
<g clip-path="url(#clip0_9864_11703)">
<rect width="723.809" height="271.861" fill="white"/>
<mask id="mask0_9864_11703" style="mask-type:luminance" maskUnits="userSpaceOnUse" x="0" y="0" width="724" height="272">
<path d="M0 -8.1021e-06H723.809V271.861H0V-8.1021e-06Z" fill="white"/>
</mask>
<g mask="url(#mask0_9864_11703)">
<path d="M296.231 210.588C314.885 210.588 337.082 206.81 354.793 197.128V161.235C334.013 170.208 320.317 171.388 304.26 171.388C283.007 171.388 270.728 162.888 266.949 146.594H223.736C228.223 187.447 258.684 210.588 296.231 210.588Z" fill="#FF5000"/>
<path d="M150.059 60.8751C130.695 60.8751 116.527 69.1404 105.193 80.0031C102.359 70.3204 95.5114 64.1804 83.2314 64.1804H58.9087V146.594H107.082V110.464C114.166 104.562 122.667 100.075 132.349 100.075C144.391 100.075 152.185 105.978 152.185 121.327V207.282H200.594V117.312C200.594 80.9471 180.522 60.8751 150.059 60.8751Z" fill="#4A4F55"/>
<path d="M58.9092 207.283H107.083V146.595H58.9092V207.283Z" fill="#FF5000"/>
<path d="M620.451 166.902V191.225V207.282H664.137V146.594H620.451V166.902Z" fill="#FF5000"/>
<path d="M600.616 60.8752C576.529 60.8752 557.874 65.8339 540.164 73.3912V109.285C557.638 101.255 572.988 98.8939 588.809 98.8939C609.589 98.8939 619.506 105.034 620.452 119.91H589.281C553.388 119.91 530.482 136.205 530.482 163.361C530.482 191.461 550.318 209.407 577.238 209.407C596.365 209.407 609.825 200.907 620.452 191.225V166.902C607.936 173.987 595.185 175.639 589.281 175.639C578.182 175.639 572.042 170.445 572.042 160.999C572.042 153.442 578.654 146.594 594.476 146.594H620.452H664.137V124.633C664.137 86.8512 642.649 60.8752 600.616 60.8752Z" fill="#4A4F55"/>
<path d="M525.523 64.1814H472.155L448.306 100.783L437.207 84.2534C428.706 71.5014 422.802 64.1814 405.563 64.1814H365.183L417.838 133.851L430.075 150.043L473.336 207.283H530.482L474.988 133.371L525.523 64.1814Z" fill="#4A4F55"/>
<path d="M362.586 207.282H417.134L444.059 168.546L430.075 150.042L417.838 133.85L362.586 207.282Z" fill="#FF5000"/>
<path d="M267.185 119.202C270.018 101.019 282.298 95.8244 294.341 95.8244C307.093 95.8244 315.358 103.616 316.302 119.202H267.185ZM293.869 60.8751C256.322 60.8751 223.026 87.7951 223.026 135.967C223.026 139.51 223.262 143.052 223.736 146.594H266.949H359.516V137.384C359.516 84.0164 330.47 60.8751 293.869 60.8751Z" fill="#4A4F55"/>
</g>
</g>
<defs>
<clipPath id="clip0_9864_11703">
<rect width="723.809" height="271.861" fill="white"/>
</clipPath>
</defs>
</svg>
